<svg version="1.1" id="logo-motivemix" xmlns="http://www.w3.org/2000/svg" xmlns:xlink="http://www.w3.org/1999/xlink" x="0px" y="0px" width="505.5px" height="104.3px" viewBox="0 0 505.5 104.3" >
<style>
#motive-mix-group { fill: white; }
</style>
<g id="motive-mix-group">
	<g>
		<path d="M485.3,4c9.2,0,16.8,7.5,16.8,16.8c0,9.2-7.5,16.8-16.8,16.8c-9.2,0-16.8-7.5-16.8-16.8C468.5,11.6,476.1,4,485.3,4z M485.3,34.4c7.5,0,13.6-6.1,13.6-13.6s-6.1-13.6-13.6-13.6s-13.6,6.1-13.6,13.6S477.7,34.4,485.3,34.4z M485.7,11.5 c2,0,3.3,0.6,4.2,1.5c0.9,0.9,1.5,2.2,1.5,3.5c0,2.8-1.4,4.7-4.2,5.2l6.2,8.1h-4l-6.1-8h-0.8v8H479V11.5H485.7z M482.5,14.8v4.1 h2.9c1.1,0,1.7-0.2,2.1-0.6c0.3-0.3,0.5-0.9,0.5-1.4c0-0.5-0.2-1.1-0.5-1.4c-0.4-0.4-1-0.6-2.1-0.6H482.5z"/>
	</g>
	<g>
		<path d="M37.5,88.3h-7L10,56.2v47.1H0v-70h7L34,76l27-42.7h7v70H58V56.2L37.5,88.3z"/>
		<path d="M105.8,55.3c13.9,0,24.3,10.5,24.3,24.5s-10.4,24.5-24.3,24.5S81.5,93.8,81.5,79.8S91.9,55.3,105.8,55.3z M105.8,95.3c8.7,0,14.8-6.9,14.8-15.5s-6.1-15.5-14.8-15.5S91,71.2,91,79.8S97.1,95.3,105.8,95.3z"/>
		<path d="M171.1,101.1c-3.3,2.2-6.7,3.2-10.4,3.2c-4.7,0-9.1-2-11.9-5.4c-2.2-2.7-3.2-6.3-3.2-12.1v-22h-11v-8.5h11V41.2h9.5v15.1h14v8.5h-14v22.3c0,3.7,0.5,5.2,1.5,6.4c1.2,1.4,3,2.1,5.1,2.1c2,0,4.1-0.7,5.7-1.7C168.4,96.2,171.1,101.2,171.1,101.1z"/>
		<path d="M182.4,34.8h9.9v11h-9.9V34.8z M182.6,56.3h9.5v47h-9.5V56.3z"/>
		<path d="M201.6,56.3h9.9l13.9,32.1l13.9-32.1h9.7l-20.4,47H222L201.6,56.3z"/>
		<path d="M263.2,81.8c0.5,7.9,7,14.2,15.2,14.2c7,0,10.8-3.4,13.5-6.4l6.2,5.9c-3.5,4.5-10.2,8.8-19.8,8.8 c-13.7,0-24.3-10.4-24.3-24.5c0-14.1,9.6-24.5,22.9-24.5c13.1,0,22.6,10.6,22.6,24.5c0,0.4,0,1.1-0.1,2H263.2z M264,73.8h25.6 c-1.4-6-6.8-10.2-12.4-10.2C271.1,63.6,265.6,67.7,264,73.8z"/>
		<path d="M350.5,88.3h-7L323,56.2v47.1h-10v-70h7L347,76l27-42.7h7v70h-10V56.2L350.5,88.3z"/>
		<path d="M398.3,34.8h9.9v11h-9.9V34.8z M398.5,56.3h9.5v47h-9.5V56.3z"/>
		<path d="M442,86.1l-12.9,17.2H418l18.4-24.5l-16.7-22.5h11.2L442,71.4l11.3-15.1h11l-16.7,22.3l18.4,24.7h-11.3L442,86.1z"/>
	</g>
</g>
</svg>
